<?xml version="1.0" encoding="utf-8"?>
<!-- Generator: Adobe Illustrator 27.1.1, SVG Export Plug-In . SVG Version: 6.00 Build 0)  -->
<svg version="1.1" baseProfile="tiny" id="Layer_1" xmlns="http://www.w3.org/2000/svg" xmlns:xlink="http://www.w3.org/1999/xlink"
	 x="0px" y="0px" viewBox="0 0 1080 1080" overflow="visible" xml:space="preserve">
<g>
	<path fill="none" stroke="#FFFFFF" stroke-width="7" stroke-miterlimit="10" d="M480.88,569.45H411.7c0,0-62.36-0.39-62.36-58.94
		c0-70.73,0-70.73,0-70.73h125.09c0,0,70.34,0.62,70.34,64.84s0,64.22,0,64.22s-4.33,66.39-70.1,66.39s-125.33,0-125.33,0
		s-0.47-39.25,34.75-57.7c13.03-6.82,16.75-8.07,22.34-8.07S480.88,569.45,480.88,569.45z"/>
	<rect x="408.59" y="498.41" fill="none" stroke="#FFFFFF" stroke-width="7" stroke-miterlimit="10" width="70.73" height="70.73"/>
	<text transform="matrix(1 0 0 1 559.0024 508.6787)" fill="#FFFFFF" font-family="'Poppins-Regular'" font-size="53.0993px">DESIGN</text>
	<text transform="matrix(1 0 0 1 561.1621 552.9473)" fill="#FFFFFF" font-family="'Poppins-Regular'" font-size="53.0993px">ON</text>
	<text transform="matrix(1 0 0 1 559.0024 600.4551)" fill="#FFFFFF" font-family="'Poppins-Regular'" font-size="53.0993px">DEMAND</text>
</g>
</svg>
